<?xml version="1.0" standalone="no"?>
<!DOCTYPE svg PUBLIC "-//W3C//DTD SVG 1.1//EN" "http://www.w3.org/Graphics/SVG/1.1/DTD/svg11.dtd" >
<svg xmlns="http://www.w3.org/2000/svg" xmlns:xlink="http://www.w3.org/1999/xlink" version="1.1" viewBox="-30 -253 2570 2248">
  <g transform="matrix(1 0 0 -1 0 1638)">
   <path fill="currentColor"
d="M1214 436q17 0 32.5 11.5t15.5 31.5q0 15 -13 34.5t-37 44.5l-81 82q-15 16 -33 32t-35 16q-11 0 -19.5 -5t-14.5 -11.5t-9 -14t-3 -11.5q0 -20 16.5 -39.5t30.5 -34.5q118 -136 150 -136zM1113 332q0 13 -13 32.5t-37 48.5l-52 60q-68 80 -100 80q-25 0 -58 -28
q-30 -26 -30 -45q0 -6 1 -12t3 -11q3 -5 17.5 -24.5t40.5 -50.5q105 -126 146 -126q29 0 55 26q27 27 27 50zM2416 1718q0 -15 -10.5 -34.5t-22.5 -32.5l-39 -53q-79 -111 -158 -114q-44 -2 -80 -42l-555 -621q-88 -98 -88 -182q0 -30 18.5 -50.5t53.5 -20.5q25 0 57 27
q30 26 52 26q53 0 53 -66q0 -84 -76 -180q-25 -33 -92 -64l-52 -25q-24 -11 -41 -25t-29 -33.5t-20.5 -45t-14.5 -60.5l-10 -51q-18 -95 -47 -169t-64 -130q-69 -112 -173.5 -168.5t-236.5 -56.5q-187 0 -363 107q-174 105 -284 284t-110 355q0 123 58 225q29 51 65.5 91.5
t86 70.5t114 49t148.5 27q101 10 178 38.5t132 72t89 101t49 126.5q11 56 24 92.5t26 55.5q49 70 123.5 109.5t161.5 39.5q32 0 50 -16.5t18 -42.5q0 -46 -50 -84q-100 -76 -100 -180q0 -95 85 -95q45 0 75 26l624 540l7 18q22 85 35 101l3 8q0 19 -36 19q-17 0 -24 13
t-7 26q0 20 12.5 34t33.5 14q14 0 27 -8t12 -25l-2 -21q-2 -23 17 -23l7 1l47 32l5 9l-3 13q-6 9 -29 19q-22 9 -22 33q0 15 12 29t32 14q44 0 44 -34l-8 -38q0 -11 13 -21q63 26 63 33v4q0 10 -20 25q-21 15 -21 31q0 17 14 30t31 13q16 0 30.5 -8.5t14.5 -28.5
q0 -13 -8.5 -23t-8.5 -21l8 -16q18 0 35 -4t30.5 -13t22 -23t8.5 -33z" />
  </g>

</svg>
